# xmcd
#
# Track frame offsets: 
#        150
#        18295
#        33636
#        48847
#        61951
#        79568
#        95444
#        109706
#        125020
#        143695
#
# Disc length: 2109 seconds
#
# Revision: 1
# Processed by: cddbd v1.4PL0 Copyright (c) Steve Scherf et al.
# Submitted via: ExactAudioCopy v0.90b3
#
DISCID=7a083b0a
DTITLE=Earl Thomas Conley - Super Hits
DYEAR=1998
DGENRE=Country
TTITLE0=I Can't Win For Losin' You
TTITLE1=Love Don't Care (Whose Heart It Breaks)
TTITLE2=Nobody Falls Like A Fool
TTITLE3=Chance Of Lovin' You
TTITLE4=Angel In Disguise
TTITLE5=Don't Make It Easy For Me
TTITLE6=Holding Her And Loving You
TTITLE7=Your Love's On The Line
TTITLE8=Somewhere Between Right And Wrong
TTITLE9=Fire And Smoke
EXTD=
EXTT0=
EXTT1=
EXTT2=
EXTT3=
EXTT4=
EXTT5=
EXTT6=
EXTT7=
EXTT8=
EXTT9=
PLAYORDER=
